<svg xmlns="http://www.w3.org/2000/svg" viewBox="0 0 80 40">
  <rect width="80" height="40" fill="#FFB3C7"/>
  <g fill="#0A0B09">
    <path d="M16.5 8.5h4.8v23h-4.8z"/>
    <path d="M24 8.5h4.5c0 4.8-1.8 9.3-5 12.7l6.3 10.3h-5.6l-5.5-9.1.1-.1c3.4-3.2 5.2-7.6 5.2-13.8z"/>
    <path d="M33.1 31.5h-4.8V8.5h4.8z"/>
    <path d="M40.5 14.8c-1.5 0-2.9.5-3.9 1.6v-1.3h-4.5v16.4h4.6v-8.6c0-2.4 1.6-3.5 3.3-3.5 1.9 0 3 1.3 3 3.4v8.7h4.6v-9.9c0-4.1-2.8-6.8-7.1-6.8z"/>
    <path d="M56.8 14.8c-1.5 0-2.9.5-3.9 1.6v-1.3h-4.5v16.4h4.6v-8.6c0-2.4 1.6-3.5 3.3-3.5 1.9 0 3 1.3 3 3.4v8.7h4.6v-9.9c0-4.1-2.8-6.8-7.1-6.8z"/>
    <path d="M73.5 14.8c-5 0-8.3 3.6-8.3 8.5s3.3 8.5 8.3 8.5c3 0 5.5-1.3 6.9-3.3l-3.5-2.3c-.8 1-2 1.6-3.4 1.6-2.1 0-3.7-1.2-4.1-3.3h11.8c.1-.4.1-.8.1-1.2 0-5-3.3-8.5-7.8-8.5zm-3.9 6.8c.4-2 1.9-3.1 3.9-3.1 2.1 0 3.4 1.2 3.7 3.1h-7.6z"/>
    <circle cx="5" cy="28" r="3.5"/>
  </g>
</svg>
